<svg width="40" height="40" viewBox="0 0 40 40" fill="none" xmlns="http://www.w3.org/2000/svg">
<path d="M24.5749 34.9547V36.1235C24.5749 37.0535 23.8899 37.8272 22.9986 37.9589L22.7097 39.0206C22.5529 39.5967 22.033 40 21.4305 40H18.5667C17.9642 40 17.4443 39.5967 17.2875 39.0206L17.0069 37.9589C16.1073 37.8189 15.4223 37.0535 15.4223 36.1152V34.9465C15.4223 34.321 15.9257 33.8189 16.553 33.8189H23.4443C24.0715 33.8272 24.5749 34.3292 24.5749 34.9547ZM29.8817 19.2016C29.8817 21.8601 28.8253 24.2716 27.1086 26.0412C25.8046 27.3909 24.9628 29.1111 24.6822 30.9465C24.5584 31.7366 23.8734 32.321 23.0646 32.321H16.9326C16.132 32.321 15.4388 31.7449 15.3232 30.9547C15.0344 29.1193 14.1843 27.3745 12.8803 26.0329C11.1967 24.2881 10.1486 21.9177 10.1238 19.3086C10.066 13.8272 14.4402 9.39095 19.9367 9.34979C25.425 9.30864 29.8817 13.7366 29.8817 19.2016ZM21.1169 13.2346C21.1169 12.6255 20.6217 12.1235 20.0027 12.1235C16.0743 12.1235 12.8721 15.3086 12.8721 19.2346C12.8721 19.8436 13.3673 20.3457 13.9863 20.3457C14.597 20.3457 15.1004 19.8519 15.1004 19.2346C15.1004 16.535 17.304 14.3457 20.0027 14.3457C20.6217 14.3457 21.1169 13.8519 21.1169 13.2346ZM20.0027 6.11523C20.6135 6.11523 21.1169 5.6214 21.1169 5.00412V1.11111C21.1169 0.502058 20.6217 0 20.0027 0C19.3838 0 18.8886 0.493827 18.8886 1.11111V5.00412C18.8886 5.6214 19.392 6.11523 20.0027 6.11523ZM6.88862 19.1934C6.88862 18.5844 6.39343 18.0823 5.77445 18.0823H1.87076C1.26003 18.0823 0.756592 18.5761 0.756592 19.1934C0.756592 19.8025 1.25178 20.3045 1.87076 20.3045H5.77445C6.39343 20.3045 6.88862 19.8107 6.88862 19.1934ZM38.1347 18.0823H34.231C33.6203 18.0823 33.1169 18.5761 33.1169 19.1934C33.1169 19.8025 33.612 20.3045 34.231 20.3045H38.1347C38.7454 20.3045 39.2489 19.8107 39.2489 19.1934C39.2489 18.5844 38.7537 18.0823 38.1347 18.0823ZM9.15821 28.4444L6.39343 31.2016C5.95602 31.6379 5.95602 32.3375 6.39343 32.7737C6.60801 32.9877 6.89687 33.0947 7.17747 33.0947C7.45808 33.0947 7.74694 32.9877 7.96151 32.7737L10.7263 30.0165C11.1637 29.5802 11.1637 28.8807 10.7263 28.4444C10.2971 28.0082 9.58737 28.0082 9.15821 28.4444ZM30.0632 10.2716C30.3438 10.2716 30.6327 10.1646 30.8473 9.95062L33.612 7.19342C34.0494 6.7572 34.0494 6.05761 33.612 5.6214C33.1746 5.18519 32.4731 5.18519 32.0357 5.6214L29.2709 8.3786C28.8335 8.81482 28.8335 9.5144 29.2709 9.95062C29.4938 10.1646 29.7744 10.2716 30.0632 10.2716ZM9.15821 9.94239C9.37279 10.1564 9.66165 10.2634 9.94225 10.2634C10.2229 10.2634 10.5117 10.1564 10.7263 9.94239C11.1637 9.50617 11.1637 8.80658 10.7263 8.37037L7.96151 5.61317C7.5241 5.17695 6.82259 5.17695 6.38518 5.61317C5.94777 6.04938 5.94777 6.74897 6.38518 7.18519L9.15821 9.94239ZM30.8473 28.4444C30.4098 28.0082 29.7083 28.0082 29.2709 28.4444C28.8335 28.8807 28.8335 29.5802 29.2709 30.0165L32.0357 32.7737C32.2503 32.9877 32.5391 33.0947 32.8197 33.0947C33.1003 33.0947 33.3892 32.9877 33.6038 32.7737C34.0412 32.3375 34.0412 31.6379 33.6038 31.2016L30.8473 28.4444Z" fill="#CA364A"/>
</svg>
