<svg width="40" height="40" viewBox="0 0 40 40" fill="none" xmlns="http://www.w3.org/2000/svg">
<g clip-path="url(#clip0)">
<path d="M36.7233 19.4814H30.2695V21.8804H36.7233V19.4814Z" fill="#52B3E0"/>
<path d="M3.74426 0.591476V4.36383L5.39092 3.8554V2.23941H38.3508V23.2512H12.1232L12.0376 24.8978H40V0.591476H3.74426Z" fill="#52B3E0"/>
<path d="M6.36557 14.4954C9.06138 14.4954 11.2468 12.31 11.2468 9.61421C11.2468 6.9184 9.06138 4.73302 6.36557 4.73302C3.66976 4.73302 1.48438 6.9184 1.48438 9.61421C1.48438 12.31 3.66976 14.4954 6.36557 14.4954Z" fill="#52B3E0"/>
<path d="M10.5097 37.1806V28.49V27.6712V26.5598H10.8201L11.2736 17.7389L19.6921 13.3763L18.9844 12.012L19.1901 12.3697L28.2103 7.20618L27.8028 6.4908L18.7953 11.6467L18.5858 11.2417L10.8891 15.2299H8.14256L6.2813 17.3876L4.48007 15.2299L0.525038 15.9645L0.2721 24.7381H1.94941L2.04011 26.5598H2.29433V27.6712V28.49V37.1806H1.95835L0 37.606V39.4098H1.66709L3.61395 39.093L3.63183 39.4098H5.7882V37.3978V37.1806V28.49H7.01584V37.1806V37.3978V39.4098H9.1722L9.19009 39.093L11.1369 39.4098H12.804V37.606L10.8444 37.1806H10.5097Z" fill="#52B3E0"/>
</g>
<defs>
<clipPath id="clip0">
<rect width="40" height="40" fill="white"/>
</clipPath>
</defs>
</svg>
