<?xml version="1.0" encoding="UTF-8"?>
<svg width="194px" height="425px" viewBox="0 0 194 425" version="1.1" xmlns="http://www.w3.org/2000/svg" xmlns:xlink="http://www.w3.org/1999/xlink">
    <!-- Generator: Sketch 52.3 (67297) - http://www.bohemiancoding.com/sketch -->
    <title>Rocket</title>
    <desc>Created with Sketch.</desc>
    <defs>
        <path d="M113.838,124.612 C114.031,135.336 105.357,144.054 94.432,144.054 C83.5066,144.054 74.5189,135.336 74.326,124.612 C74.1331,113.888 82.8071,105.169 93.7324,105.169 C104.658,105.169 113.645,113.888 113.838,124.612 Z" id="path-1"></path>
    </defs>
    <g id="Page-1" stroke="none" stroke-width="1" fill="none" fill-rule="evenodd">
        <g id="Artboard" transform="translate(-473.000000, -274.000000)">
            <g id="Rocket" transform="translate(474.000000, 276.000000)">
                <path d="M173.633,215.975 C173.648,215.999 173.663,216.023 173.679,216.047 C174.171,216.805 174.879,217.95 175.734,219.479 C177.444,222.536 179.743,227.132 182.071,233.253 C186.727,245.492 191.507,263.837 191.945,288.187 C192.181,301.327 189.467,314.706 186.681,324.825 C185.289,329.879 183.882,334.107 182.824,337.07 C182.59,337.727 182.372,338.322 182.176,338.849 C182,338.19 181.795,337.437 181.563,336.601 C180.652,333.324 179.312,328.778 177.598,323.699 C174.179,313.567 169.235,301.212 163.179,292.6 C158.826,286.409 152.036,279.505 146.374,274.178 C143.536,271.507 140.968,269.22 139.108,267.6 C138.179,266.79 137.426,266.146 136.905,265.705 C136.787,265.605 136.681,265.516 136.588,265.437 L146.558,226.253 C146.723,226.276 146.908,226.3 147.112,226.326 C148.007,226.439 149.254,226.574 150.665,226.665 C153.453,226.843 157.004,226.856 159.722,226.098 C163.363,225.082 167.078,222.25 169.814,219.776 C171.2,218.524 172.367,217.334 173.187,216.457 C173.349,216.284 173.498,216.123 173.633,215.975 Z" id="Path" stroke="#0A2141" stroke-width="2" fill="#FFFFFF"></path>
                <path d="M15.9341,215.976 C15.9196,215.999 15.905,216.023 15.8901,216.047 C15.4259,216.806 14.7588,217.95 13.9586,219.479 C12.3582,222.537 10.2254,227.132 8.1172,233.253 C3.90145,245.493 -0.21807,263.837 0.21994,288.187 C0.4563,301.327 3.65118,314.706 6.8021,324.825 C8.3758,329.879 9.9345,334.107 11.099,337.07 C11.3572,337.727 11.596,338.322 11.8112,338.85 C11.9634,338.191 12.141,337.437 12.3434,336.601 C13.1366,333.324 14.3125,328.779 15.844,323.699 C18.899,313.567 23.3978,301.212 29.1439,292.6 C33.2747,286.409 39.8164,279.505 45.2863,274.178 C48.0284,271.507 50.5146,269.22 52.3154,267.6 C53.216,266.79 53.9457,266.147 54.4507,265.705 C54.565,265.605 54.6677,265.516 54.7584,265.437 L43.3786,226.253 C43.2142,226.276 43.0296,226.301 42.827,226.326 C41.936,226.439 40.6935,226.575 39.286,226.665 C36.5041,226.844 32.954,226.856 30.2091,226.098 C26.5314,225.083 22.7146,222.25 19.8889,219.776 C18.4587,218.524 17.2489,217.334 16.3965,216.457 C16.2282,216.284 16.0737,216.123 15.9341,215.976 Z" id="Path" stroke="#0A2141" stroke-width="2" fill="#FFFFFF"></path>
                <path d="M43.1343,131.98 L43.1365,131.965 L43.1384,131.951 C47.7472,97.2297 60.0893,63.9462 71.3034,39.3133 C76.9073,27.004 82.222,16.8709 86.134,9.8182 C88.0898,6.29212 89.6945,3.53687 90.8088,1.66547 C90.9794,1.37897 91.1384,1.11319 91.2855,0.86854 C91.4293,1.10549 91.5843,1.36195 91.7502,1.63755 C92.8776,3.51059 94.508,6.26772 96.512,9.7959 C100.522,16.8526 106.029,26.9912 112.014,39.3074 C123.986,63.9456 137.842,97.2478 145.454,132 C155.123,183.77 152.068,217.822 146.659,238.865 C143.955,249.39 140.659,256.67 138.063,261.296 C136.765,263.61 135.64,265.261 134.851,266.323 C134.516,266.773 134.241,267.118 134.039,267.362 L57.5955,267.362 C57.3988,267.112 57.1373,266.768 56.8212,266.326 C56.04,265.232 54.9245,263.538 53.6258,261.176 C51.0289,256.452 47.696,249.055 44.8396,238.449 C39.1271,217.24 35.3112,183.171 43.1343,131.98 Z M119.028,124.062 C118.784,110.515 107.432,99.508 93.6407,99.508 C79.8496,99.508 68.8935,110.515 69.1371,124.062 C69.3808,137.608 80.7329,148.615 94.524,148.615 C108.315,148.615 119.271,137.608 119.028,124.062 Z" id="Combined-Shape" stroke="#0A2141" stroke-width="3" fill="#FFFFFF"></path>
                <g id="Path">
                    <path stroke="#FFFFFF" stroke-width="4" d="M115.837676,124.576012 C116.0511,136.434837 106.459264,146.054 94.432,146.054 C82.4321866,146.054 72.5391263,136.478436 72.3263235,124.64797 C72.1130068,112.788933 81.7050661,103.169 93.7324,103.169 C105.732081,103.169 115.624757,112.745234 115.837676,124.576012 Z"></path>
                    <use stroke="#0A2141" stroke-width="3" xlink:href="#path-1"></use>
                </g>
                <polygon id="Path" stroke="#0A2141" stroke-width="2" fill="#FFFFFF" points="95.413 295.119 65.2948 295.119 65.0677 282.491 65.0634 282.252 64.9512 282.038 58.5508 269.862 95.704 269.862 96.053 289.242"></polygon>
                <polygon id="Path" stroke="#0A2141" stroke-width="2" fill="#FFFFFF" points="65.0866 283.49 95.951 283.49 96.054 289.241 95.414 295.119 65.2958 295.119"></polygon>
                <polygon id="Path" stroke="#0A2141" stroke-width="2" fill="#FFFFFF" points="104.135 269.862 133.129 269.862 127.166 282.038 127.062 282.251 127.066 282.491 127.294 295.119 103.414 295.119 103.985 282.554 103.986 282.537 103.986 282.52"></polygon>
                <polygon id="Path" stroke="#0A2141" stroke-width="2" fill="#FFFFFF" points="103.414 295.119 103.942 283.491 127.084 283.491 127.293 295.119"></polygon>
                <path d="M98.551,420.473 C91.5019,410.895 86.569,402.552 83.0351,393.711 C79.3645,384.528 77.1856,374.763 75.7425,362.458 C75.2414,358.184 75.5595,352.948 75.8353,348.411 C75.8516,348.142 75.8678,347.876 75.8836,347.612 C76.0236,345.285 76.1388,343.156 76.087,341.542 C76.0612,340.739 75.9931,340.005 75.8442,339.414 C75.7128,338.892 75.442,338.158 74.7546,337.814 C74.2896,337.582 73.802,337.581 73.3836,337.666 C72.9684,337.749 72.5551,337.929 72.1617,338.15 C71.3752,338.59 70.5014,339.288 69.5995,340.116 C67.7859,341.78 65.6895,344.129 63.6921,346.484 C62.4098,347.996 61.1471,349.536 60.0178,350.914 C59.3901,351.68 58.8035,352.395 58.2777,353.028 C57.596,353.848 57.0192,354.525 56.5743,355.01 C56.4392,354.589 56.2892,354.053 56.1303,353.412 C55.6953,351.658 55.2161,349.209 54.8076,346.418 C53.9882,340.819 53.47,333.955 54.12,328.624 C54.9333,321.954 58.4331,313.997 61.7906,307.636 C63.4609,304.471 65.0801,301.731 66.2815,299.782 C66.882,298.808 67.3776,298.032 67.7224,297.502 C67.8177,297.355 67.9015,297.227 67.9727,297.118 L124.691,297.118 C124.767,297.227 124.855,297.355 124.956,297.502 C125.319,298.032 125.843,298.808 126.478,299.782 C127.75,301.731 129.468,304.471 131.252,307.636 C134.838,313.997 138.624,321.954 139.678,328.624 C140.522,333.97 140.423,340.802 139.894,346.368 C139.63,349.147 139.262,351.578 138.861,353.323 C138.66,354.201 138.458,354.871 138.272,355.315 C138.257,355.349 138.244,355.381 138.23,355.41 C138.144,355.343 138.045,355.26 137.931,355.158 C137.423,354.702 136.775,353.998 136.008,353.098 C135.052,351.976 133.969,350.62 132.812,349.17 C132.111,348.292 131.383,347.38 130.638,346.464 C128.69,344.067 126.643,341.664 124.814,339.985 C123.903,339.149 122.995,338.444 122.138,338.018 C121.305,337.603 120.296,337.345 119.374,337.814 C118.699,338.158 118.454,338.892 118.342,339.414 C118.214,340.005 118.172,340.739 118.175,341.542 C118.182,343.156 118.373,345.285 118.597,347.612 C118.622,347.876 118.648,348.142 118.674,348.411 C119.113,352.948 119.62,358.184 119.272,362.458 C118.272,374.763 116.444,384.528 113.104,393.711 C109.888,402.552 105.255,410.895 98.551,420.473 Z" id="Shape" stroke="#0A2141" stroke-width="2" fill="#FFFFFF" fill-rule="nonzero"></path>
                <path d="M98.314,400.642 C88.2859,383.595 83.8946,372.529 81.5227,352.53 C81.1756,349.603 81.0393,345.982 80.908,342.495 C80.8656,341.368 80.8237,340.254 80.7753,339.183 C80.678,337.025 80.5532,335.022 80.3346,333.489 C80.2261,332.729 80.0854,332.016 79.8868,331.433 C79.7873,331.141 79.6562,330.83 79.4744,330.547 C79.298,330.271 79.0099,329.921 78.5585,329.698 C77.718,329.284 76.7891,329.399 76.1066,329.563 C75.3646,329.742 74.5559,330.07 73.7459,330.457 C72.1216,331.235 70.2352,332.378 68.4406,333.482 C68.2472,333.601 68.0548,333.719 67.8638,333.837 C66.2464,334.833 64.7245,335.771 63.4502,336.437 C62.736,336.811 62.1639,337.065 61.7402,337.196 C61.6015,337.239 61.499,337.263 61.4283,337.275 C61.0779,337.016 60.5385,336.232 60.3646,334.095 C60.1787,331.809 60.4639,328.478 61.3811,324 C62.5182,318.448 65.5243,311.708 68.3055,306.278 C69.6871,303.581 70.9964,301.239 71.96,299.571 C72.4416,298.738 72.8363,298.074 73.1098,297.62 C73.1102,297.619 73.1107,297.619 73.1111,297.618 L121.337,297.618 C121.348,297.633 121.358,297.648 121.369,297.663 C121.68,298.112 122.129,298.768 122.674,299.592 C123.764,301.242 125.238,303.563 126.768,306.242 C129.855,311.647 133.066,318.333 133.953,323.885 C134.67,328.369 134.446,331.804 133.939,334.132 C133.685,335.3 133.365,336.166 133.072,336.74 C132.991,336.9 132.915,337.031 132.848,337.134 C132.478,336.977 131.972,336.705 131.33,336.32 C130.483,335.813 129.524,335.187 128.479,334.505 C127.869,334.106 127.229,333.688 126.564,333.263 C124.812,332.143 122.925,330.999 121.227,330.248 C120.378,329.873 119.514,329.566 118.696,329.426 C117.894,329.288 116.971,329.281 116.139,329.698 C115.696,329.921 115.42,330.271 115.254,330.547 C115.082,330.83 114.962,331.141 114.873,331.433 C114.696,332.016 114.581,332.729 114.5,333.489 C114.336,335.022 114.283,337.025 114.264,339.183 C114.254,340.255 114.252,341.368 114.25,342.495 C114.244,345.983 114.238,349.603 113.996,352.53 C113.131,363 111.823,371.221 109.276,378.954 C106.924,386.092 103.497,392.871 98.314,400.642 Z" id="Shape" stroke="#0A2141" stroke-width="3" fill="#FFFFFF" fill-rule="nonzero"></path>
                <path d="M97.309,348.682 C91.5072,339.681 88.7793,334.098 88.1749,329.131 C87.882,326.724 87.2939,323.591 86.6421,320.983 C86.3171,319.682 85.9637,318.461 85.6065,317.505 C85.43,317.033 85.231,316.567 85.0073,316.171 C84.8953,315.972 84.7528,315.748 84.5743,315.535 C84.4111,315.34 84.1202,315.037 83.6836,314.828 C83.1226,314.559 82.5796,314.553 82.2175,314.589 C81.8422,314.626 81.4935,314.725 81.2028,314.829 C80.6227,315.037 80.0071,315.36 79.4222,315.704 C78.2411,316.4 76.8548,317.379 75.5611,318.302 C75.4228,318.401 75.2857,318.499 75.1497,318.596 C73.9731,319.437 72.8862,320.214 71.993,320.776 C71.9554,320.8 71.9185,320.823 71.8825,320.845 C71.8459,320.502 71.8226,320.093 71.8185,319.618 C71.8023,317.776 72.0752,315.313 72.6176,312.75 C73.2286,309.862 75.6613,306.134 78.1947,302.931 C79.4239,301.376 80.6127,300.024 81.4947,299.06 C81.8411,298.681 82.1391,298.363 82.3723,298.118 L110.75,298.118 C110.926,298.335 111.136,298.598 111.373,298.899 C112.121,299.852 113.129,301.191 114.169,302.734 C116.303,305.903 118.361,309.631 118.847,312.591 C119.28,315.23 119.494,317.818 119.517,319.756 C119.519,319.965 119.52,320.164 119.518,320.353 C119.022,320.01 118.483,319.624 117.905,319.212 C117.438,318.879 116.947,318.528 116.433,318.167 C115.098,317.229 113.643,316.244 112.358,315.558 C111.72,315.218 111.04,314.904 110.384,314.72 C109.808,314.558 108.826,314.371 107.889,314.828 C107.392,315.07 107.094,315.44 106.93,315.691 C106.759,315.954 106.647,316.222 106.57,316.442 C106.418,316.88 106.321,317.378 106.252,317.852 C106.111,318.815 106.035,320.042 105.981,321.315 C105.944,322.208 105.917,323.131 105.89,324.049 C105.837,325.85 105.784,327.631 105.656,329.131 C105.229,334.113 102.941,339.895 97.309,348.682 Z" id="Shape" stroke="#0A2141" stroke-width="4" fill="#FFFFFF" fill-rule="nonzero"></path>
                <path d="M96.776,333.48 C95.342,325.62 89.3883,291.712 89.0388,268.865 C88.6989,246.646 93.3351,213.706 94.479,205.956 C94.549,205.48 94.954,205.128 95.454,205.128 C95.957,205.128 96.385,205.495 96.465,205.987 C97.717,213.764 102.734,246.178 103.188,268.864 C103.643,291.623 99.72,325.484 98.75,333.449 C98.691,333.936 98.282,334.3 97.775,334.3 C97.275,334.3 96.862,333.951 96.776,333.48 Z" id="Path" stroke="#0A2141" stroke-width="2" fill="#FFFFFF"></path>
                <path d="M94.83,204.878 L95.947,204.878 C96.089,204.878 96.176,204.968 96.193,205.072 C97.107,210.856 102.382,245.157 102.855,268.864 C103.329,292.618 99.218,328.436 98.515,334.359 C98.508,334.418 98.483,334.461 98.446,334.493 C98.408,334.525 98.351,334.55 98.277,334.55 L97.159,334.55 C97.019,334.55 96.904,334.435 96.904,334.295 C96.912,327.872 96.936,292.507 96.572,268.864 C96.218,245.849 94.842,211.457 94.584,205.13 C94.579,204.993 94.686,204.878 94.83,204.878 Z" id="Path" stroke="#0A2141" stroke-width="1.5" fill="#FFFFFF"></path>
            </g>
        </g>
    </g>
</svg>