<svg width="42" height="40" viewBox="0 0 42 40" fill="none" xmlns="http://www.w3.org/2000/svg">
<path d="M25.5749 34.9547V36.1235C25.5749 37.0535 24.8899 37.8272 23.9986 37.9589L23.7097 39.0206C23.5529 39.5967 23.033 40 22.4305 40H19.5667C18.9642 40 18.4443 39.5967 18.2875 39.0206L18.0069 37.9589C17.1073 37.8189 16.4223 37.0535 16.4223 36.1152V34.9465C16.4223 34.321 16.9257 33.8189 17.553 33.8189H24.4443C25.0715 33.8272 25.5749 34.3292 25.5749 34.9547ZM30.8817 19.2016C30.8817 21.8601 29.8253 24.2716 28.1086 26.0412C26.8046 27.3909 25.9628 29.1111 25.6822 30.9465C25.5584 31.7366 24.8734 32.321 24.0646 32.321H17.9326C17.132 32.321 16.4388 31.7449 16.3232 30.9547C16.0344 29.1193 15.1843 27.3745 13.8803 26.0329C12.1967 24.2881 11.1486 21.9177 11.1238 19.3086C11.066 13.8272 15.4402 9.39095 20.9367 9.34979C26.425 9.30864 30.8817 13.7366 30.8817 19.2016ZM22.1169 13.2346C22.1169 12.6255 21.6217 12.1235 21.0027 12.1235C17.0743 12.1235 13.8721 15.3086 13.8721 19.2346C13.8721 19.8436 14.3673 20.3457 14.9863 20.3457C15.597 20.3457 16.1004 19.8519 16.1004 19.2346C16.1004 16.535 18.304 14.3457 21.0027 14.3457C21.6217 14.3457 22.1169 13.8519 22.1169 13.2346ZM21.0027 6.11523C21.6135 6.11523 22.1169 5.6214 22.1169 5.00412V1.11111C22.1169 0.502058 21.6217 0 21.0027 0C20.3838 0 19.8886 0.493827 19.8886 1.11111V5.00412C19.8886 5.6214 20.392 6.11523 21.0027 6.11523ZM7.88862 19.1934C7.88862 18.5844 7.39343 18.0823 6.77445 18.0823H2.87076C2.26003 18.0823 1.75659 18.5761 1.75659 19.1934C1.75659 19.8025 2.25178 20.3045 2.87076 20.3045H6.77445C7.39343 20.3045 7.88862 19.8107 7.88862 19.1934ZM39.1347 18.0823H35.231C34.6203 18.0823 34.1169 18.5761 34.1169 19.1934C34.1169 19.8025 34.612 20.3045 35.231 20.3045H39.1347C39.7454 20.3045 40.2489 19.8107 40.2489 19.1934C40.2489 18.5844 39.7537 18.0823 39.1347 18.0823ZM10.1582 28.4444L7.39343 31.2016C6.95602 31.6379 6.95602 32.3375 7.39343 32.7737C7.60801 32.9877 7.89687 33.0947 8.17747 33.0947C8.45808 33.0947 8.74694 32.9877 8.96151 32.7737L11.7263 30.0165C12.1637 29.5802 12.1637 28.8807 11.7263 28.4444C11.2971 28.0082 10.5874 28.0082 10.1582 28.4444ZM31.0632 10.2716C31.3438 10.2716 31.6327 10.1646 31.8473 9.95062L34.612 7.19342C35.0494 6.7572 35.0494 6.05761 34.612 5.6214C34.1746 5.18519 33.4731 5.18519 33.0357 5.6214L30.2709 8.3786C29.8335 8.81482 29.8335 9.5144 30.2709 9.95062C30.4938 10.1646 30.7744 10.2716 31.0632 10.2716ZM10.1582 9.94239C10.3728 10.1564 10.6616 10.2634 10.9423 10.2634C11.2229 10.2634 11.5117 10.1564 11.7263 9.94239C12.1637 9.50617 12.1637 8.80658 11.7263 8.37037L8.96151 5.61317C8.5241 5.17695 7.82259 5.17695 7.38518 5.61317C6.94777 6.04938 6.94777 6.74897 7.38518 7.18519L10.1582 9.94239ZM31.8473 28.4444C31.4098 28.0082 30.7083 28.0082 30.2709 28.4444C29.8335 28.8807 29.8335 29.5802 30.2709 30.0165L33.0357 32.7737C33.2503 32.9877 33.5391 33.0947 33.8197 33.0947C34.1003 33.0947 34.3892 32.9877 34.6038 32.7737C35.0412 32.3375 35.0412 31.6379 34.6038 31.2016L31.8473 28.4444Z" fill="white"/>
</svg>
