<svg width="40" height="40" viewBox="0 0 40 40" fill="none" xmlns="http://www.w3.org/2000/svg">
<path d="M20 40C31.0457 40 40 31.0458 40 20C40 8.95429 31.0457 0 20 0C8.95429 0 0 8.95429 0 20C0 31.0458 8.95429 40 20 40ZM20 2.5C29.6495 2.5 37.5 10.3505 37.5 20C37.5 29.6496 29.6495 37.5 20 37.5C10.3505 37.5 2.5 29.6496 2.5 20C2.5 10.3505 10.3505 2.5 20 2.5Z" fill="white"/>
<path d="M10.4732 18.1959L11.9247 23.6427H13.4848L15.2548 16.3574H13.7741L12.6559 21.4466L11.3778 16.3574H9.62851L8.29675 21.3611L7.19814 16.3574H5.69177L7.43128 23.6427H9.02671L10.4732 18.1959Z" fill="white"/>
<path d="M18.6336 23.6427L20.0802 18.1959L21.5316 23.6427H23.0917L24.8617 16.3574H23.381L22.2628 21.4466L20.9847 16.3574H19.2354L17.9037 21.3611L16.8051 16.3574H15.2987L17.0382 23.6427H18.6336Z" fill="white"/>
<path d="M28.2406 23.6427L29.6871 18.1959L31.1385 23.6427H32.6986L34.4687 16.3574H32.9879L31.8697 21.4466L30.5917 16.3574H28.8424L27.5106 21.3611L26.412 16.3574H24.9056L26.6452 23.6427H28.2406Z" fill="white"/>
</svg>
