<svg width="42" height="40" viewBox="0 0 42 40" fill="none" xmlns="http://www.w3.org/2000/svg">
<g clip-path="url(#clip0)">
<path d="M35.4675 0.5V2.99388H5.24669C4.52981 2.99388 3.95268 3.56746 3.95268 4.28571V34.4224H1.44922V0.5H35.4675Z" fill="white" stroke="#0A2141"/>
<path d="M20.0879 21.4265V20.5816H20.3573C20.7688 20.5816 20.9647 20.8497 20.9706 21.008C20.9673 21.1558 20.7824 21.4265 20.3573 21.4265H20.0879Z" fill="white" stroke="#0A2141"/>
<path d="M11.8214 22.6347L11.9201 22.4195L12.0197 22.6347H11.8214Z" fill="white" stroke="#0A2141"/>
<path d="M27.9871 21.4265V20.5816H28.2565C28.6854 20.5816 28.8698 20.8571 28.8698 21.004C28.8698 21.1509 28.6854 21.4265 28.2565 21.4265H27.9871Z" fill="white" stroke="#0A2141"/>
<path d="M35.6511 24.3348L35.6515 24.3352C35.7668 24.4369 35.9334 24.504 36.1311 24.504C36.56 24.504 36.7444 24.2285 36.7444 24.0816C36.7444 23.9347 36.56 23.6591 36.1311 23.6591C34.5151 23.6591 33.0363 22.5563 33.0363 21.0122C33.0363 19.4681 34.5151 18.3653 36.1311 18.3653C36.9521 18.3653 37.7607 18.6464 38.3523 19.1675L35.6511 24.3348ZM35.6511 24.3348C35.1952 23.9337 34.4536 23.9048 33.9664 24.2907M35.6511 24.3348L34.273 24.6857M36.6112 20.759L36.6107 20.7586C36.4954 20.6569 36.3289 20.5898 36.1311 20.5898C35.7022 20.5898 35.5179 20.8653 35.5179 21.0122C35.5179 21.1591 35.7022 21.4347 36.1311 21.4347C37.7472 21.4347 39.226 22.5375 39.226 24.0816C39.226 25.6257 37.7472 26.7285 36.1311 26.7285C35.3101 26.7285 34.5013 26.4473 33.9097 25.9262M36.6112 20.759L34.273 24.6857M36.6112 20.759C37.0671 21.1601 37.8087 21.189 38.2959 20.8031M36.6112 20.759L38.2959 20.8031M33.9097 25.9262L34.2403 25.551L33.91 25.9264C33.9099 25.9263 33.9098 25.9262 33.9097 25.9262ZM33.9097 25.9262C33.6668 25.7123 33.5286 25.4129 33.5389 25.0959C33.5492 24.7797 33.7059 24.4896 33.9664 24.2907M33.9664 24.2907C33.9642 24.2924 33.962 24.2941 33.9599 24.2959L34.273 24.6857M33.9664 24.2907C33.9682 24.2893 33.97 24.288 33.9718 24.2866L34.273 24.6857M38.2959 20.8031C38.5563 20.6042 38.713 20.3141 38.7233 19.9979C38.7337 19.6809 38.5955 19.3815 38.3525 19.1676L38.2959 20.8031ZM14.9473 26.6665C15.0262 26.6502 15.1264 26.6197 15.1219 26.6204L15.13 26.618C15.7409 26.4366 16.1696 25.7911 15.8671 25.1371C15.8671 25.1371 15.867 25.137 15.867 25.1369L13.0676 19.08L13.0677 19.08L13.0638 19.0719C12.8497 18.6297 12.373 18.3979 11.918 18.3979C11.463 18.3979 10.9746 18.6245 10.7674 19.082C10.767 19.0829 10.7665 19.0838 10.7661 19.0848L7.96892 25.1369C7.96888 25.137 7.96884 25.1371 7.96881 25.1371C7.66329 25.7976 8.10303 26.4262 8.69669 26.6152C9.26535 26.7962 9.98328 26.5945 10.2596 25.9982C10.2596 25.9982 10.2596 25.9981 10.2596 25.9981C10.2597 25.998 10.2598 25.9978 10.2598 25.9977L10.7883 24.8591H13.0477L13.5763 25.9982L13.5841 26.0149L13.5931 26.031C13.8411 26.4763 14.2086 26.6589 14.5516 26.6907C14.7087 26.7052 14.8467 26.6873 14.9473 26.6665ZM6.54065 39.5V5.57751H40.5589V39.5H6.54065ZM20.0879 23.651H20.3574C21.9676 23.651 23.444 22.5461 23.444 20.9959C23.444 19.4518 21.9652 18.3489 20.3492 18.3489H18.843C18.2575 18.3489 17.5981 18.7519 17.5981 19.4612V25.6081C17.5981 26.3054 18.2528 26.7204 18.843 26.7204C19.4286 26.7204 20.0879 26.3174 20.0879 25.6081V23.651ZM27.9871 25.6081V23.651H28.2565C29.8719 23.651 31.3528 22.5481 31.3432 20.9942C31.3421 19.451 29.8638 18.3489 28.2483 18.3489H26.7422C26.1566 18.3489 25.4973 18.7519 25.4973 19.4612V25.6081C25.4973 26.3054 26.152 26.7204 26.7422 26.7204C27.3277 26.7204 27.9871 26.3174 27.9871 25.6081Z" fill="white" stroke="#0A2141"/>
</g>
<defs>
<clipPath id="clip0">
<rect width="40.1097" height="40" fill="white" transform="translate(0.949219)"/>
</clipPath>
</defs>
</svg>
