<svg width="40" height="40" viewBox="0 0 40 40" fill="none" xmlns="http://www.w3.org/2000/svg">
<g clip-path="url(#clip0)">
<path d="M16.1857 0H2.38571C1.07 0 0 1.07 0 2.38571V16.1857C0 17.5014 1.07 18.5714 2.38571 18.5714H16.1857C17.5014 18.5714 18.5714 17.5014 18.5714 16.1857V2.38571C18.5714 1.07 17.5014 0 16.1857 0ZM17.1429 16.1857C17.1429 16.7136 16.7136 17.1429 16.1857 17.1429H2.38571C1.85786 17.1429 1.42857 16.7136 1.42857 16.1857V2.38571C1.42857 1.85786 1.85786 1.42857 2.38571 1.42857H16.1857C16.7136 1.42857 17.1429 1.85786 17.1429 2.38571V16.1857Z" fill="white"/>
<path d="M37.6143 0H23.8143C22.4986 0 21.4286 1.07 21.4286 2.38571V16.1857C21.4286 17.5014 22.4986 18.5714 23.8143 18.5714H37.6143C38.93 18.5714 40 17.5014 40 16.1857V2.38571C40 1.07 38.93 0 37.6143 0ZM38.5714 16.1857C38.5714 16.7136 38.1422 17.1429 37.6143 17.1429H23.8143C23.2864 17.1429 22.8572 16.7136 22.8572 16.1857V2.38571C22.8572 1.85786 23.2864 1.42857 23.8143 1.42857H37.6143C38.1422 1.42857 38.5714 1.85786 38.5714 2.38571V16.1857Z" fill="white"/>
<path d="M16.1857 21.4286H2.38571C1.07 21.4286 0 22.4986 0 23.8143V37.6143C0 38.93 1.07 40 2.38571 40H16.1857C17.5014 40 18.5714 38.93 18.5714 37.6143V23.8143C18.5714 22.4986 17.5014 21.4286 16.1857 21.4286ZM17.1429 37.6143C17.1429 38.1421 16.7136 38.5714 16.1857 38.5714H2.38571C1.85786 38.5714 1.42857 38.1421 1.42857 37.6143V23.8143C1.42857 23.2864 1.85786 22.8571 2.38571 22.8571H16.1857C16.7136 22.8571 17.1429 23.2864 17.1429 23.8143V37.6143Z" fill="white"/>
<path d="M39.2857 30H31.4286V22.1428C31.4286 21.7478 31.1093 21.4286 30.7143 21.4286C30.3193 21.4286 30 21.7478 30 22.1428V30H22.1429C21.7479 30 21.4286 30.3193 21.4286 30.7143C21.4286 31.1093 21.7479 31.4286 22.1429 31.4286H30V39.2857C30 39.6807 30.3193 40 30.7143 40C31.1093 40 31.4286 39.6807 31.4286 39.2857V31.4286H39.2857C39.6807 31.4286 40 31.1093 40 30.7143C40 30.3193 39.6807 30 39.2857 30Z" fill="white"/>
</g>
<defs>
<clipPath id="clip0">
<rect width="40" height="40" fill="white"/>
</clipPath>
</defs>
</svg>
