<svg width="42" height="40" viewBox="0 0 42 40" fill="none" xmlns="http://www.w3.org/2000/svg">
<g clip-path="url(#clip0)">
<rect width="40.1099" height="40" transform="translate(0.947754)" fill="white"/>
<path d="M27.7719 35.2018L29.1849 33.0392L31.9718 36.145C28.8438 38.2628 25.0691 39.5008 21.0027 39.5008C10.2015 39.5008 1.44775 30.7692 1.44775 20.0009C1.44775 9.23262 10.2015 0.500977 21.0027 0.500977C31.8039 0.500977 40.5576 9.23263 40.5576 20.0008C40.5576 25.8513 37.9738 31.0991 33.8803 34.674C33.8637 34.6528 33.8462 34.6319 33.8279 34.6115L31.009 31.4698L33.6015 30.359L34.8498 29.8242L33.5528 29.4219L26.0409 27.0915L25.2388 26.8427L25.4023 27.6664L26.8629 35.0256L27.1015 36.2279L27.7719 35.2018Z" fill="white" stroke="#5A84AA"/>
<path d="M10.5578 17.7235L10.7183 17.2154H11.0072L11.1677 17.7235H10.856H10.8356H10.5578ZM11.6576 19.3986L11.5238 18.8505L12.3748 21.5444L12.4281 21.7937L11.6576 19.3986ZM12.9983 23.5659L12.826 23.0306H13.0972H13.1175H13.4363L13.2805 23.5659H12.9983ZM15.1285 17.2154L13.7443 21.972L13.8365 21.5288L14.9303 17.2154H15.1285ZM10.1008 19.1701L10.0465 19.4023L9.30626 21.7471L9.35045 21.5455L10.1008 19.1701ZM8.48321 22.9164L8.89371 23.0539L8.73207 23.5659H8.44514L8.2316 22.8321L8.46282 22.9095L8.48321 22.9164ZM8.10934 22.4119L6.59715 17.2154H6.80645L7.9493 21.5251L8.10934 22.4119Z" fill="white" stroke="#5A84AA"/>
<path d="M21.1165 17.7235L21.277 17.2154H21.5661L21.7266 17.7235H21.4147H21.3943H21.1165ZM22.2163 19.3986L22.0819 18.8482L22.9336 21.5443L22.9871 21.7944L22.2163 19.3986ZM23.557 23.5659L23.3848 23.0306H23.6558H23.6764H23.995L23.8393 23.5659H23.557ZM25.6872 17.2154L24.3034 21.9708L24.3953 21.5288L25.4892 17.2154H25.6872ZM20.659 19.1719L20.6051 19.4023L19.8654 21.7454L19.9092 21.5455L20.659 19.1719ZM19.042 22.9164L19.4523 23.0538L19.2907 23.5659H19.0037L18.7902 22.832L19.0216 22.9095L19.042 22.9164ZM18.6684 22.4134L17.1557 17.2154H17.3651L18.5081 21.5251L18.6684 22.4134Z" fill="white" stroke="#5A84AA"/>
<path d="M31.6755 17.7235L31.836 17.2154H32.125L32.2855 17.7235H31.9737H31.9533H31.6755ZM32.7754 19.3986L32.6415 18.8505L33.4925 21.5443L33.5457 21.7931L32.7754 19.3986ZM34.1161 23.5659L33.9439 23.0306H34.2148H34.2353H34.554L34.3983 23.5659H34.1161ZM36.2462 17.2154L34.8621 21.9718L34.9542 21.5288L36.0481 17.2154H36.2462ZM31.2184 19.1706L31.1642 19.4023L30.424 21.7467L30.4681 21.5455L31.2184 19.1706ZM29.6015 22.9166L30.0115 23.0534L29.8497 23.5659H29.5628L29.3494 22.8324L29.581 22.9097L29.6015 22.9166ZM29.2268 22.4112L27.7148 17.2154H27.9241L29.0669 21.5251L29.2268 22.4112Z" fill="white" stroke="#5A84AA"/>
</g>
<defs>
<clipPath id="clip0">
<rect width="40.1099" height="40" fill="white" transform="translate(0.947754)"/>
</clipPath>
</defs>
</svg>
