<svg width="41" height="40" viewBox="0 0 41 40" fill="none" xmlns="http://www.w3.org/2000/svg">
<g clip-path="url(#clip0)">
<path d="M15.0412 2.5C6.73345 2.5 0 8.0975 0 15C0 18.98 2.25117 22.51 5.74324 24.795L3.7603 28.75L9.1626 26.4425C10.3208 26.8525 11.5241 27.19 12.8101 27.3475C12.6346 26.585 12.5343 25.8025 12.5343 25C12.5343 18.1075 19.2803 12.5 27.5756 12.5C28.3351 12.5 29.0772 12.5625 29.8092 12.6525C28.4855 6.8725 22.3813 2.5 15.0412 2.5ZM10.0275 11.875C8.98963 11.875 8.14732 11.035 8.14732 10C8.14732 8.965 8.98963 8.125 10.0275 8.125C11.0653 8.125 11.9076 8.965 11.9076 10C11.9076 11.035 11.0653 11.875 10.0275 11.875ZM20.0549 11.875C19.0171 11.875 18.1748 11.035 18.1748 10C18.1748 8.965 19.0171 8.125 20.0549 8.125C21.0928 8.125 21.9351 8.965 21.9351 10C21.9351 11.035 21.0928 11.875 20.0549 11.875Z" fill="#4ECDC4"/>
<path d="M40.1099 24.9199C40.1099 19.2396 34.3366 14.6342 27.2174 14.6342C20.0982 14.6342 14.325 19.2396 14.325 24.9199C14.325 30.6002 20.0982 35.2056 27.2174 35.2056C28.3881 35.2056 29.502 35.041 30.5824 34.807L37.5314 37.777L35.1282 32.9864C38.1399 31.1042 40.1099 28.2087 40.1099 24.9199ZM23.3497 24.277C22.2822 24.277 21.4158 23.413 21.4158 22.3484C21.4158 21.2839 22.2822 20.4199 23.3497 20.4199C24.4172 20.4199 25.2835 21.2839 25.2835 22.3484C25.2835 23.413 24.4172 24.277 23.3497 24.277ZM31.0852 24.277C30.0177 24.277 29.1513 23.413 29.1513 22.3484C29.1513 21.2839 30.0177 20.4199 31.0852 20.4199C32.1527 20.4199 33.019 21.2839 33.019 22.3484C33.019 23.413 32.1527 24.277 31.0852 24.277Z" fill="#4ECDC4"/>
</g>
<defs>
<clipPath id="clip0">
<rect width="40.1099" height="40" fill="white"/>
</clipPath>
</defs>
</svg>
